<?xml version="1.0" encoding="UTF-8" standalone="no"?>
<!-- Created with Inkscape (http://www.inkscape.org/) -->

<svg
   xmlns:dc="http://purl.org/dc/elements/1.1/"
   xmlns:cc="http://creativecommons.org/ns#"
   xmlns:rdf="http://www.w3.org/1999/02/22-rdf-syntax-ns#"
   xmlns:svg="http://www.w3.org/2000/svg"
   xmlns="http://www.w3.org/2000/svg"
   xmlns:sodipodi="http://sodipodi.sourceforge.net/DTD/sodipodi-0.dtd"
   xmlns:inkscape="http://www.inkscape.org/namespaces/inkscape"
   width="32mm"
   height="32mm"
   viewBox="0 0 32 32"
   version="1.1"
   id="svg900"
   inkscape:export-filename="/home/jakub/appleLogo.png"
   inkscape:export-xdpi="142.875"
   inkscape:export-ydpi="142.875"
   inkscape:version="0.92.3 (2405546, 2018-03-11)"
   sodipodi:docname="promianaLogo2.svg">
  <defs
     id="defs894">
    <filter
       inkscape:collect="always"
       style="color-interpolation-filters:sRGB"
       id="filter1609"
       x="-0.010800001"
       width="1.0216"
       y="-0.010799999"
       height="1.0216">
      <feGaussianBlur
         inkscape:collect="always"
         stdDeviation="0.14477658"
         id="feGaussianBlur1611" />
    </filter>
  </defs>
  <sodipodi:namedview
     id="base"
     pagecolor="#ffffff"
     bordercolor="#666666"
     borderopacity="1.0"
     inkscape:pageopacity="0.0"
     inkscape:pageshadow="2"
     inkscape:zoom="7.9195959"
     inkscape:cx="40.08199"
     inkscape:cy="59.256831"
     inkscape:document-units="mm"
     inkscape:current-layer="layer3"
     showgrid="false"
     inkscape:window-width="2560"
     inkscape:window-height="1412"
     inkscape:window-x="1920"
     inkscape:window-y="0"
     inkscape:window-maximized="1" />
  <metadata
     id="metadata897">
    <rdf:RDF>
      <cc:Work
         rdf:about="">
        <dc:format>image/svg+xml</dc:format>
        <dc:type
           rdf:resource="http://purl.org/dc/dcmitype/StillImage" />
        <dc:title></dc:title>
      </cc:Work>
    </rdf:RDF>
  </metadata>
  <g
     inkscape:groupmode="layer"
     id="layer3"
     inkscape:label="Layer 2">
    <rect
       style="fill:#ffffff;fill-opacity:1;stroke-width:0.26458332;opacity:0.692;filter:url(#filter1609)"
       id="rect1482"
       width="32.172569"
       height="32.172577"
       x="0"
       y="-0.0055236816"
       inkscape:export-xdpi="142.875"
       inkscape:export-ydpi="142.875" />
  </g>
  <g
     inkscape:label="Layer 1"
     inkscape:groupmode="layer"
     id="layer1"
     transform="translate(0,-265)">
    <g
       id="g915"
       transform="matrix(0.56169504,0,0,0.56169504,4.7863804,123.1687)">
      <text
         xml:space="preserve"
         style="font-style:normal;font-variant:normal;font-weight:bold;font-stretch:normal;font-size:54.76293945px;line-height:1.25;font-family:serif;-inkscape-font-specification:'serif, Bold';font-variant-ligatures:normal;font-variant-caps:normal;font-variant-numeric:normal;font-feature-settings:normal;text-align:start;letter-spacing:0px;word-spacing:0px;writing-mode:lr-tb;text-anchor:start;fill:#000000;fill-opacity:1;stroke:none;stroke-width:1.36907327"
         x="-5.646472"
         y="257.12589"
         id="text24"
         transform="scale(0.85530885,1.1691683)"><tspan
           sodipodi:role="line"
           id="tspan22"
           x="-5.646472"
           y="257.12589"
           style="font-style:normal;font-variant:normal;font-weight:bold;font-stretch:normal;font-size:54.76293945px;font-family:serif;-inkscape-font-specification:'serif, Bold';font-variant-ligatures:normal;font-variant-caps:normal;font-variant-numeric:normal;font-feature-settings:normal;text-align:start;writing-mode:lr-tb;text-anchor:start;stroke-width:1.36907327">P</tspan></text>
      <path
         inkscape:connector-curvature="0"
         id="path37"
         d="m 24.317644,253.57211 c -0.76115,0.0138 -1.52016,0.0878 -2.26221,0.23413 -0.13298,0.0262 -0.26471,0.0585 -0.39589,0.0916 1.12148,0.18228 2.21672,0.54751 3.2672,0.97954 0.81402,0.33478 1.6092,0.74348 2.3148,1.26966 h 5.3e-4 c 0.39198,0.2923 0.74189,0.64624 1.04288,1.03157 0.13161,0.1685 0.21446,0.36956 0.32689,0.55141 0.3836,0.62048 0.79135,1.22641 1.1854,1.84031 0.58987,0.91896 1.21557,1.8157 1.76509,2.75934 0.28295,0.48586 0.6008,0.9615 0.78725,1.49192 0.23231,0.66088 0.29998,1.3701 0.39815,2.0637 0.0427,0.30212 -0.0283,0.62683 0.0826,0.91111 0.0966,0.24786 0.31328,0.43051 0.48467,0.63398 0.19772,0.23473 0.40967,0.45822 0.62607,0.67584 0.40172,0.40397 0.84299,0.7668 1.24705,1.16843 0.1566,0.15566 0.30336,0.30477 0.45584,0.48072 0.15248,0.17597 0.23185,0.45425 0.23187,0.70016 2e-5,0.22407 -0.0851,0.4525 -0.21095,0.63794 -0.25314,0.37322 -0.83351,0.46748 -1.03609,0.87038 -0.0417,0.0828 -0.017,0.18499 -0.017,0.27769 1.1e-4,0.27123 -0.0233,0.55093 0.0498,0.81213 0.032,0.11424 0.0923,0.22188 0.1657,0.31502 0.12603,0.15991 0.45923,0.40267 0.45923,0.40267 0.0941,0.10141 0.10268,0.1518 0.095,0.2364 -0.0172,0.19287 -0.16993,0.3571 -0.3088,0.49203 -0.13469,0.13088 -0.3416,0.16585 -0.4858,0.28617 -0.0617,0.0514 2.2e-4,-2.1e-4 -0.15723,0.18211 0,0 0.14818,0.0799 0.34386,0.20077 0.11132,0.0687 0.24148,0.19024 0.27825,0.32915 0.0655,0.24745 0.048,0.58691 -0.14139,0.75445 -0.6876,0.60822 -0.79821,0.26336 -0.93429,0.58139 -0.11825,0.27635 0.0816,0.57083 0.27146,0.74483 0.28499,0.26121 0.43121,0.60208 0.45584,0.95352 0.0305,0.43466 -0.14191,0.89082 -0.39363,1.24648 -0.11531,0.16294 -0.26036,0.30894 -0.42246,0.43321 0.55051,0.0671 0.97554,0.27479 1.78318,0.34612 0.49393,0.0437 2.0373,0.13118 2.91204,-0.17928 0.39007,-0.13844 0.75287,-0.40866 0.99198,-0.74653 0.25172,-0.35566 0.4247,-0.81182 0.39419,-1.24648 -0.0246,-0.35143 -0.17142,-0.69231 -0.4564,-0.95352 -0.18983,-0.174 -0.38914,-0.46848 -0.2709,-0.74483 0.13608,-0.31803 0.2467,0.0274 0.9343,-0.58082 0.18942,-0.16755 0.20687,-0.50757 0.14138,-0.75502 -0.0368,-0.13891 -0.1675,-0.25984 -0.27881,-0.32858 -0.19568,-0.12083 -0.34329,-0.20134 -0.34329,-0.20134 0.15745,-0.18232 0.0955,-0.13067 0.15722,-0.18211 0.14421,-0.12032 0.35054,-0.15528 0.48524,-0.28617 0.13887,-0.13493 0.29215,-0.29859 0.30936,-0.49146 0.008,-0.0846 -0.001,-0.13499 -0.0956,-0.2364 0,0 -0.33264,-0.24333 -0.45865,-0.40324 -0.0734,-0.0931 -0.13375,-0.20078 -0.16572,-0.31502 -0.0731,-0.2612 -0.0497,-0.5409 -0.0498,-0.81213 -7e-5,-0.0927 -0.0253,-0.19486 0.0164,-0.27769 0.20259,-0.4029 0.78297,-0.49659 1.03609,-0.86982 0.12578,-0.18543 0.21155,-0.41443 0.21153,-0.6385 -2e-5,-0.24591 -0.08,-0.52419 -0.23244,-0.70016 -0.15249,-0.17595 -0.29868,-0.32506 -0.45528,-0.48072 -0.40405,-0.40162 -0.84589,-0.76446 -1.2476,-1.16843 -0.2164,-0.21762 -0.42779,-0.44054 -0.6255,-0.67527 -0.1714,-0.20347 -0.38805,-0.38612 -0.48468,-0.63398 -0.11084,-0.28429 -0.0405,-0.60956 -0.0832,-0.91167 -0.0982,-0.69361 -0.16527,-1.40282 -0.39758,-2.0637 -0.18644,-0.53043 -0.50428,-1.0055 -0.78724,-1.49137 -0.54954,-0.94363 -1.17579,-1.84094 -1.76566,-2.75989 -0.39406,-0.6139 -0.80123,-1.21927 -1.18484,-1.83975 -0.11242,-0.18186 -0.19528,-0.38348 -0.32688,-0.55198 -0.301,-0.38533 -0.65147,-0.7387 -1.04345,-1.031 -0.70559,-0.52618 -1.50077,-0.93545 -2.31479,-1.27023 -1.15418,-0.47468 -2.36193,-0.87092 -3.59975,-1.02987 -0.75017,-0.0963 -1.5135,-0.14275 -2.27465,-0.12895 z m -10.53342,0.5531 c -0.27584,-0.003 -0.56313,0.091 -0.79121,0.23527 -0.25409,0.1606 -0.2895,0.54934 -0.53049,0.729 -0.22416,0.16713 -0.52096,0.19428 -0.79573,0.26694 0.001,0.002 0.003,0.003 0.004,0.005 0.13413,0.19512 -6.6e-4,0.57879 0.23414,0.67018 0.37578,-0.13093 0.78095,-0.4704 1.19332,-0.66283 0.74692,-0.34855 1.49779,-0.71522 2.27182,-1.00329 -0.041,-0.002 -0.082,-0.005 -0.12273,-0.005 -0.26172,0.003 -0.51178,0.13949 -0.76462,0.17928 0,0 -0.24544,-0.32773 -0.42925,-0.37835 -0.0867,-0.0239 -0.17726,-0.0353 -0.26921,-0.0362 z m 14.0981,26.20149 c -0.48162,-0.004 -0.96854,0.0296 -1.39183,0.23527 -0.3092,0.15027 -0.53656,0.44506 -0.72956,0.72956 -0.87808,1.29435 -1.41029,2.80976 -1.85615,4.30895 -0.33245,1.11789 -0.47925,2.28727 -0.59666,3.44761 -0.074,0.72592 -0.28126,1.49091 -0.0662,2.18812 0.0886,0.28723 0.35902,0.48172 0.52993,0.729 0.48095,0.69583 1.04123,1.3524 1.39239,2.12195 0.43855,0.96107 0.46282,2.07133 0.8619,3.04946 0.41843,1.02555 0.95776,2.00867 1.59146,2.91712 0.3522,0.5049 1.05782,1.24132 1.2544,1.44499 h 5.40273 c 0,0 -0.9892,-1.01288 -1.3924,-1.5909 -0.63371,-0.90845 -1.17247,-1.89157 -1.5909,-2.91712 -0.39907,-0.97813 -0.42335,-2.08896 -0.8619,-3.05003 -0.35115,-0.76954 -0.91144,-1.42555 -1.39239,-2.12139 -0.1709,-0.24727 -0.44187,-0.44233 -0.53049,-0.72956 -0.21509,-0.6972 -0.008,-1.46163 0.0662,-2.18756 0.11741,-1.16033 0.26478,-2.32972 0.59722,-3.44761 0.44586,-1.49918 0.97807,-3.01516 1.85615,-4.3095 0.0934,-0.13771 0.19566,-0.27721 0.31049,-0.40211 -0.39155,-0.005 -0.745,-0.022 -0.9309,-0.0385 -0.93112,-0.0822 -1.35353,-0.34645 -2.04617,-0.36648 -0.15681,-0.005 -0.31679,-0.0101 -0.47733,-0.0113 z"
         style="fill:#000000;fill-opacity:0.97786997;stroke:#000000;stroke-width:0.0928185px;stroke-linecap:butt;stroke-linejoin:miter;stroke-opacity:1" />
    </g>
    <text
       xml:space="preserve"
       style="font-style:normal;font-variant:normal;font-weight:bold;font-stretch:normal;font-size:6.30554914px;line-height:1.25;font-family:serif;-inkscape-font-specification:'serif, Bold';font-variant-ligatures:normal;font-variant-caps:normal;font-variant-numeric:normal;font-feature-settings:normal;text-align:start;letter-spacing:0px;word-spacing:0px;writing-mode:lr-tb;text-anchor:start;fill:#000000;fill-opacity:1;stroke:none;stroke-width:0.15763871"
       x="3.5720427"
       y="272.27628"
       id="text20"
       transform="scale(0.91771796,1.0896594)"><tspan
         sodipodi:role="line"
         id="tspan18"
         x="3.5720427"
         y="272.27628"
         style="font-style:normal;font-variant:normal;font-weight:bold;font-stretch:normal;font-size:6.30554914px;font-family:serif;-inkscape-font-specification:'serif, Bold';font-variant-ligatures:normal;font-variant-caps:normal;font-variant-numeric:normal;font-feature-settings:normal;text-align:start;writing-mode:lr-tb;text-anchor:start;stroke-width:0.15763871">romiana</tspan></text>
    <rect
       style="fill:#000000;fill-opacity:0;stroke-width:0.26458332"
       id="rect935"
       width="32.172569"
       height="32.172569"
       x="0"
       y="264.99448" />
  </g>
</svg>
